# Blender v2.78 (sub 0) OBJ File: 'Low_Poly_Nature_Pack_lite.blend'
# www.blender.org
mtllib model.mtl
o Stone_2_moss_mat_Icosphere.002
v -0.238619 0.019079 -0.711332
v 0.557855 0.123337 0.518274
v -0.390018 0.422126 -0.090148
v 0.001285 0.614182 0.026698
v -0.526117 -0.138833 -0.066226
v -0.140000 -0.140780 -0.627567
v -0.427228 -0.140780 -0.427023
v 0.469855 -0.140780 -0.210550
v 0.177207 -0.140780 -0.566907
v 0.506239 -0.140780 0.239011
v -0.303688 -0.140780 0.532811
v -0.048126 -0.109577 0.536567
v 0.154945 0.237973 0.689739
v -0.482328 0.096152 0.421769
v 0.036536 0.206754 -0.755799
v 0.224920 0.095690 -0.541573
v 0.564650 0.319330 0.298914
v -0.137369 0.280794 0.733342
v -0.230611 0.113329 -0.687460
v 0.539134 0.214088 0.500881
v -0.376930 0.502850 -0.087122
v 0.001242 0.688461 0.025802
v -0.508461 -0.039284 -0.064004
v -0.135301 -0.041165 -0.606506
v -0.412890 -0.041165 -0.412693
v 0.454087 -0.041165 -0.203484
v 0.171261 -0.041165 -0.547882
v 0.489250 -0.041166 0.230990
v -0.293497 -0.041166 0.514930
v -0.046511 -0.011009 0.518560
v 0.149745 0.324877 0.666592
v -0.466141 0.187816 0.407615
v 0.035310 0.294706 -0.730435
v 0.217372 0.187369 -0.523398
v 0.545701 0.403504 0.288883
v -0.132759 0.366260 0.708731
vn -0.5298 0.6467 -0.5487
vn -0.4508 -0.6164 -0.6456
vn 0.7698 -0.0876 -0.6322
vn 0.2959 -0.7207 0.6269
vn 0.0408 -0.4423 0.8959
vn -0.8640 0.2994 -0.4048
vn -0.9411 0.2173 -0.2591
vn 0.7294 -0.0743 -0.6800
vn 0.1708 -0.4163 -0.8931
vn 0.1252 -0.3988 -0.9085
vn 0.9905 -0.1162 -0.0732
vn 0.9901 -0.1153 -0.0801
vn 0.8567 0.2933 -0.4243
vn 0.0699 -0.4362 0.8971
vn 0.2163 -0.4968 0.8405
vn -0.9717 0.2347 -0.0258
vn -0.8237 -0.4784 0.3043
vn -0.6308 -0.1161 0.7672
vn -0.2800 0.8463 -0.4532
vn 0.7131 0.6344 -0.2982
vn 0.5716 0.7056 -0.4188
vn 0.2324 0.8613 0.4519
vn 0.1899 0.9024 0.3869
vn 0.4452 0.6608 0.6042
vn -0.4902 0.8215 0.2914
vn -0.6546 0.6856 0.3185
vn 0.0336 -0.9994 0.0062
vn 0.0173 -0.9997 0.0143
vn -0.0138 -0.9998 0.0163
vn 0.0011 -1.0000 0.0049
vn 0.0000 -1.0000 0.0000
vn -0.0010 -1.0000 0.0019
vn -0.0539 -0.9985 0.0044
vn 0.1218 -0.9914 -0.0484
usemtl dark_grey
s 1
f 1//1 3//1 15//1
f 6//2 7//2 1//2
f 8//3 9//3 16//3
f 12//4 10//4 2//4
f 11//5 12//5 18//5
f 7//6 3//6 1//6
f 7//7 5//7 3//7
f 9//8 15//8 16//8
f 9//9 6//9 15//9
f 6//10 1//10 15//10
f 10//11 17//11 2//11
f 10//12 8//12 17//12
f 8//13 16//13 17//13
f 12//14 13//14 18//14
f 12//15 2//15 13//15
f 5//16 14//16 3//16
f 5//17 11//17 14//17
f 11//18 18//18 14//18
f 15//19 3//19 4//19
f 16//20 15//20 4//20
f 17//21 16//21 4//21
f 18//22 17//22 4//22
f 18//23 13//23 17//23
f 13//24 2//24 17//24
f 3//25 18//25 4//25
f 3//26 14//26 18//26
f 12//27 5//28 8//29
f 7//30 6//31 9//32
f 9//32 5//28 7//30
f 10//33 12//27 8//29
f 11//34 5//28 12//27
f 9//32 8//29 5//28
usemtl leafs_3
f 19//1 21//1 33//1
f 24//2 25//2 19//2
f 26//3 27//3 34//3
f 30//4 28//4 20//4
f 29//5 30//5 36//5
f 25//6 21//6 19//6
f 25//7 23//7 21//7
f 27//8 33//8 34//8
f 27//9 24//9 33//9
f 24//10 19//10 33//10
f 28//11 35//11 20//11
f 28//12 26//12 35//12
f 26//13 34//13 35//13
f 30//14 31//14 36//14
f 30//15 20//15 31//15
f 23//16 32//16 21//16
f 23//17 29//17 32//17
f 29//18 36//18 32//18
f 33//19 21//19 22//19
f 34//20 33//20 22//20
f 35//21 34//21 22//21
f 36//22 35//22 22//22
f 36//23 31//23 35//23
f 31//24 20//24 35//24
f 21//25 36//25 22//25
f 21//26 32//26 36//26
f 30//27 23//28 26//29
f 25//30 24//31 27//32
f 27//32 23//28 25//30
f 28//33 30//27 26//29
f 29//34 23//28 30//27
f 27//32 26//29 23//28
