# Blender v2.78 (sub 0) OBJ File: 'Low_Poly_Nature_Pack_lite.blend'
# www.blender.org
mtllib model.mtl
o Flower_tulip_red_mat_Cylinder.000
v -0.038321 -0.045759 -0.073049
v -0.038321 1.497555 -0.073049
v 0.012587 -0.045759 0.015125
v 0.012587 1.497555 0.015125
v -0.089228 -0.045759 0.015125
v -0.089228 1.497555 0.015125
v -0.038321 0.725898 -0.030365
v 0.012587 0.725898 0.057809
v -0.089228 0.725898 0.057809
v -0.038321 1.392612 -0.014267
v -0.038321 2.277654 -0.014267
v -0.038321 1.543753 -0.285455
v 0.196535 1.543753 0.121328
v -0.273177 1.543753 0.121328
v 0.314830 1.663162 0.007168
v -0.060283 0.521164 0.007168
v -0.006934 0.850185 0.141670
v -0.006934 0.850185 -0.127334
v 0.062159 0.838982 0.007168
v 0.300984 1.667893 0.007168
v -0.074128 0.525895 0.007168
v -0.020780 0.854916 0.141670
v -0.020780 0.854916 -0.127334
v 0.048313 0.843713 0.007168
vn 0.8657 -0.0276 -0.4998
vn -0.8657 -0.0276 -0.4998
vn -0.0000 0.0552 0.9985
vn 0.8657 0.0276 -0.4998
vn -0.8657 0.0276 -0.4998
vn -0.0000 -0.0552 0.9985
vn 0.8498 -0.2605 0.4582
vn 0.8498 -0.2605 -0.4582
vn 0.8315 -0.3203 -0.4538
vn 0.8315 -0.3203 0.4538
vn -0.8498 0.2605 -0.4582
vn -0.8498 0.2605 0.4582
vn -0.8315 0.3203 0.4538
vn -0.8315 0.3203 -0.4538
vn -0.1225 -0.3585 -0.9255
vn 0.0492 0.1440 -0.9883
vn 0.0492 0.1440 0.9883
vn -0.1225 -0.3585 0.9255
vn -0.0000 -0.6678 0.7444
vn -0.6446 -0.6678 -0.3722
vn 0.6446 -0.6678 -0.3722
vn 0.8516 0.1817 -0.4917
vn -0.8516 0.1817 -0.4917
vn -0.0000 0.1817 0.9834
usemtl leafs_2
s off
f 7//1 4//1 8//1
f 6//2 7//2 9//2
f 8//3 6//3 9//3
f 7//4 3//4 1//4
f 5//5 7//5 1//5
f 3//6 9//6 5//6
f 15//7 17//7 19//7
f 15//8 19//8 18//8
f 19//9 16//9 18//9
f 17//10 16//10 19//10
f 20//11 24//11 22//11
f 20//12 23//12 24//12
f 24//13 23//13 21//13
f 22//14 24//14 21//14
f 21//15 18//15 16//15
f 18//16 20//16 15//16
f 20//17 17//17 15//17
f 17//18 21//18 16//18
f 7//1 2//1 4//1
f 6//2 2//2 7//2
f 8//3 4//3 6//3
f 7//4 8//4 3//4
f 5//5 9//5 7//5
f 3//6 8//6 9//6
f 21//15 23//15 18//15
f 18//16 23//16 20//16
f 20//17 22//17 17//17
f 17//18 22//18 21//18
usemtl red
f 10//19 13//19 14//19
f 10//20 14//20 12//20
f 10//21 12//21 13//21
f 12//22 11//22 13//22
f 14//23 11//23 12//23
f 13//24 11//24 14//24
