# Blender v2.78 (sub 0) OBJ File: 'Low_Poly_Nature_Pack_lite.blend'
# www.blender.org
mtllib model.mtl
o Tree_05_summer_mat_Cylinder.006
v -0.460335 -0.283836 -0.058198
v -0.268905 1.705495 -0.053750
v -0.313040 -0.283836 -0.399541
v -0.180856 1.619367 -0.267237
v 0.027335 -0.283836 -0.571282
v 0.026858 1.705495 -0.349512
v 0.426313 -0.283836 -0.421299
v 0.235993 1.705495 -0.262885
v 0.584834 -0.283836 -0.038596
v 0.322620 1.705495 -0.053750
v 0.417924 -0.283836 0.342192
v 0.277234 1.733267 0.199308
v 0.043610 -0.283836 0.502628
v 0.056429 1.733267 0.290769
v -0.339093 -0.283836 0.344107
v -0.182278 1.705495 0.155386
v -0.073867 1.555032 0.069496
v 0.995257 3.316803 -1.544430
v 1.588743 3.592804 0.607983
v -0.021001 3.592824 1.777541
v -1.798653 3.277657 0.586332
v -1.051849 3.689341 -1.364766
v 1.588743 7.974979 -0.438075
v 1.095065 8.146242 1.526574
v -1.069955 8.106544 1.550192
v -1.505332 7.860205 -0.395608
v -0.058404 8.148693 -1.786331
v -0.073867 10.268528 0.069496
v 0.925175 1.616234 0.392380
v 0.639441 1.081694 -0.888959
v 1.690652 2.850270 -0.547413
v 0.000389 2.932123 -1.784838
v -0.673740 1.457544 -0.852204
v -0.064362 1.954547 1.017793
v 1.121290 2.651639 1.553813
v -1.117998 0.767903 0.376534
v -0.960534 3.462287 1.308977
v -1.711114 2.850270 -0.547413
v 0.556933 5.843079 -1.899101
v -0.611762 5.496799 -2.085280
v 2.240950 5.699630 0.012746
v 1.690663 5.711949 -1.230525
v 0.563765 5.783890 1.884708
v 1.509959 5.783890 1.197263
v -1.551962 5.783890 1.197263
v -0.593871 5.911779 1.669927
v -1.711124 5.711949 -1.230525
v -1.938542 5.854034 -0.011926
v 0.831810 8.341551 -1.157982
v 1.385674 8.341558 0.546652
v -0.064362 8.341546 1.600161
v -1.435264 8.202288 0.511849
v -1.003747 8.398777 -1.298550
v 1.040970 10.342209 -0.336302
v -0.021001 9.951534 -0.909923
v 0.446135 9.617866 0.785225
v -0.558692 10.182001 0.912786
v -0.915254 9.617869 -0.203883
vn -0.9118 0.0899 -0.4007
vn -0.4309 0.0962 -0.8972
vn 0.3606 0.1058 -0.9267
vn 0.9174 0.1180 -0.3800
vn 0.9442 0.1072 0.3115
vn 0.3881 0.0929 0.9169
vn -0.4290 0.1078 0.8968
vn -0.9423 0.0973 0.3203
vn -0.0725 -0.9146 0.3977
vn 0.3360 -0.3139 -0.8880
vn -0.0691 -0.9191 0.3879
vn 0.6290 -0.7187 0.2965
vn 0.5312 -0.8062 -0.2604
vn 0.2662 -0.0886 -0.9598
vn 0.9461 -0.2279 0.2299
vn 0.1261 -0.0820 0.9886
vn -0.6321 -0.1242 0.7649
vn -0.6732 -0.1717 -0.7193
vn 0.5048 -0.0335 -0.8626
vn 0.8421 -0.1116 0.5276
vn -0.1824 0.0006 0.9832
vn -0.9520 0.0192 0.3055
vn -0.6251 -0.1529 -0.7654
vn 0.7240 0.1960 -0.6614
vn 0.7873 0.5167 0.3365
vn -0.1212 0.3186 0.9401
vn -0.9453 0.3226 -0.0486
vn -0.3265 0.4187 -0.8474
vn -0.5257 0.8006 -0.2875
vn -0.6363 0.5405 -0.5505
vn -0.8945 0.3329 -0.2984
vn -0.5468 0.8045 -0.2318
vn -0.9172 0.3863 0.0977
vn -0.8833 0.3222 0.3405
vn 0.4907 0.7919 0.3634
vn 0.3365 0.4075 0.8490
vn 0.1376 0.4934 0.8589
vn 0.1647 0.7865 0.5953
vn 0.6854 0.3896 0.6152
vn 0.9685 0.2190 0.1182
vn -0.1752 0.9339 -0.3117
vn 0.3550 0.3232 -0.8772
vn 0.4787 0.3758 -0.7935
vn -0.4111 0.1864 -0.8923
vn -0.5915 0.1356 -0.7949
vn -0.9025 0.2284 -0.3651
vn -0.9776 0.2104 -0.0038
vn -0.9418 0.1330 0.3088
vn -0.9297 0.1413 0.3401
vn -0.0593 0.0416 0.9974
vn -0.1749 0.0663 0.9823
vn 0.0847 0.1307 0.9878
vn 0.9444 0.1234 0.3047
vn 0.8439 0.1704 0.5087
vn 0.9528 0.2906 0.0883
vn 0.7284 0.2554 -0.6358
vn 0.5149 0.1912 -0.8356
vn 0.5398 0.1842 -0.8214
vn -0.9649 0.1701 -0.1999
vn -0.9830 -0.0426 -0.1785
vn -0.9965 -0.0662 -0.0520
vn -0.4370 -0.0458 0.8983
vn -0.4342 -0.0674 0.8983
vn -0.4379 -0.0666 0.8966
vn 0.5878 -0.0095 0.8090
vn 0.5877 0.0192 0.8089
vn 0.9203 -0.0704 0.3848
vn 0.9002 0.1795 -0.3967
vn 0.9098 -0.0964 -0.4037
vn 0.7781 -0.1458 -0.6110
vn 0.1325 0.0837 -0.9876
vn 0.1778 -0.0725 -0.9814
vn -0.4922 -0.2163 -0.8432
vn -0.5912 -0.2743 -0.7585
vn -0.7385 -0.4379 -0.5128
vn -0.9643 -0.2636 0.0249
vn -0.6065 -0.2281 0.7617
vn -0.2170 -0.3079 0.9263
vn -0.3691 -0.3829 0.8468
vn -0.1634 -0.4115 0.8966
vn 0.1502 -0.7504 0.6436
vn 0.9348 -0.3286 0.1351
vn -0.5201 -0.2739 -0.8090
vn -0.1600 -0.4744 -0.8657
vn -0.2583 -0.9286 0.2663
vn 0.8963 -0.3329 0.2930
vn 0.8574 -0.5141 0.0233
vn 0.7110 -0.2997 -0.6361
usemtl Wood_dark
s off
f 1//1 2//1 4//1 3//1
f 3//2 4//2 6//2 5//2
f 5//3 6//3 8//3 7//3
f 7//4 8//4 10//4 9//4
f 9//5 10//5 12//5 11//5
f 11//6 12//6 14//6 13//6
f 13//7 14//7 16//7 15//7
f 15//8 16//8 2//8 1//8
usemtl leafs_2
f 17//9 30//9 29//9
f 18//10 30//10 32//10
f 17//11 29//11 34//11
f 17//12 34//12 36//12
f 17//13 36//13 33//13
f 18//14 32//14 39//14
f 19//15 31//15 41//15
f 20//16 35//16 43//16
f 21//17 37//17 45//17
f 22//18 38//18 47//18
f 18//19 39//19 42//19
f 19//20 41//20 44//20
f 20//21 43//21 46//21
f 21//22 45//22 48//22
f 22//23 47//23 40//23
f 23//24 49//24 54//24
f 24//25 50//25 56//25
f 25//26 51//26 57//26
f 26//27 52//27 58//27
f 27//28 53//28 55//28
f 55//29 58//29 28//29
f 55//30 53//30 58//30
f 53//31 26//31 58//31
f 58//32 57//32 28//32
f 58//33 52//33 57//33
f 52//34 25//34 57//34
f 57//35 56//35 28//35
f 57//36 51//36 56//36
f 51//37 24//37 56//37
f 56//38 54//38 28//38
f 56//39 50//39 54//39
f 50//40 23//40 54//40
f 54//41 55//41 28//41
f 54//42 49//42 55//42
f 49//43 27//43 55//43
f 40//44 53//44 27//44
f 40//45 47//45 53//45
f 47//46 26//46 53//46
f 48//47 52//47 26//47
f 48//48 45//48 52//48
f 45//49 25//49 52//49
f 46//50 51//50 25//50
f 46//51 43//51 51//51
f 43//52 24//52 51//52
f 44//53 50//53 24//53
f 44//54 41//54 50//54
f 41//55 23//55 50//55
f 42//56 49//56 23//56
f 42//57 39//57 49//57
f 39//58 27//58 49//58
f 47//59 48//59 26//59
f 47//60 38//60 48//60
f 38//61 21//61 48//61
f 45//62 46//62 25//62
f 45//63 37//63 46//63
f 37//64 20//64 46//64
f 43//65 44//65 24//65
f 43//66 35//66 44//66
f 35//67 19//67 44//67
f 41//68 42//68 23//68
f 41//69 31//69 42//69
f 31//70 18//70 42//70
f 39//71 40//71 27//71
f 39//72 32//72 40//72
f 32//73 22//73 40//73
f 33//74 38//74 22//74
f 33//75 36//75 38//75
f 36//76 21//76 38//76
f 36//77 37//77 21//77
f 36//78 34//78 37//78
f 34//79 20//79 37//79
f 34//80 35//80 20//80
f 34//81 29//81 35//81
f 29//82 19//82 35//82
f 32//83 33//83 22//83
f 32//84 30//84 33//84
f 30//85 17//85 33//85
f 29//86 31//86 19//86
f 29//87 30//87 31//87
f 30//88 18//88 31//88
