# Blender v2.78 (sub 0) OBJ File: 'Low_Poly_Nature_Pack_lite.blend'
# www.blender.org
mtllib model.mtl
o Grass_1_Autumn_2_mat_Cube.057
v 0.021886 0.016092 0.032780
v -0.128650 1.209961 0.013670
v 0.021886 0.016092 -0.034836
v -0.128650 1.209961 -0.015726
v 0.270205 0.070322 0.032780
v 0.270205 0.070322 -0.034836
v -0.090744 1.218452 -0.005926
v -0.166452 -0.032629 0.027322
v -0.502389 0.918864 0.011297
v -0.166452 -0.032629 -0.029378
v -0.502389 0.918864 -0.013353
v 0.027372 0.056025 0.027322
v 0.027372 0.056025 -0.029378
v -0.472839 0.932572 -0.005135
v -0.020479 0.154848 0.027322
v 0.039439 1.162123 0.011297
v -0.020479 0.154848 -0.029378
v 0.039439 1.162123 -0.013353
v 0.192561 0.161277 0.027322
v 0.192561 0.161277 -0.029378
v 0.071992 1.163280 -0.005135
v 0.034142 -0.008544 0.045434
v 0.399833 1.289229 0.024021
v 0.034142 -0.008544 -0.030329
v 0.399833 1.289229 -0.008916
v 0.314075 -0.060954 0.045434
v 0.314075 -0.060954 -0.030329
v 0.442658 1.281448 0.002064
v -0.167459 -0.060870 0.036854
v -0.282664 1.282511 0.015441
v -0.167459 -0.060870 -0.038909
v -0.282664 1.282511 -0.017497
v 0.112981 -0.011248 0.036854
v 0.112981 -0.011248 -0.038909
v -0.239845 1.290324 -0.006516
vn -0.9921 -0.1251 0.0000
vn -0.0051 0.0236 -0.9997
vn 0.9540 0.2999 0.0000
vn -0.0034 0.0156 0.9999
vn 0.2134 -0.9770 0.0000
vn -0.2186 0.9758 0.0000
vn 0.2404 0.0458 -0.9696
vn 0.4239 0.1633 0.8908
vn -0.9430 -0.3329 0.0000
vn -0.0100 0.0219 -0.9997
vn 0.8685 0.4956 0.0000
vn -0.0066 0.0145 0.9999
vn 0.4159 -0.9094 0.0000
vn -0.4208 0.9071 0.0000
vn 0.2252 0.0958 -0.9696
vn 0.3796 0.2496 0.8908
vn -0.9625 0.2712 0.0000
vn 0.0044 0.0237 -0.9997
vn 0.9954 -0.0953 0.0000
vn 0.0029 0.0157 0.9999
vn -0.1840 -0.9829 0.0000
vn 0.1788 0.9839 0.0000
vn 0.2393 -0.0514 -0.9696
vn 0.4541 -0.0147 0.8908
vn -0.9982 0.0594 0.0000
vn -0.0007 0.0241 -0.9997
vn 0.9928 0.1195 0.0000
vn -0.0005 0.0159 0.9999
vn 0.0302 -0.9995 0.0000
vn -0.0355 0.9994 0.0000
vn 0.2447 0.0009 -0.9696
vn 0.4467 0.0826 0.8908
vn -0.9963 -0.0854 0.0000
vn -0.0042 0.0237 -0.9997
vn 0.9652 0.2616 0.0000
vn -0.0028 0.0157 0.9999
vn 0.1742 -0.9847 0.0000
vn -0.1795 0.9838 -0.0000
vn 0.2420 0.0362 -0.9696
vn 0.4301 0.1463 0.8908
usemtl yellow
s off
f 4//1 3//1 1//1
f 7//2 6//2 3//2
f 7//3 5//3 6//3
f 2//4 1//4 5//4
f 3//5 6//5 5//5
f 7//6 4//6 2//6
f 2//1 4//1 1//1
f 4//7 7//7 3//7
f 7//8 2//8 5//8
f 1//5 3//5 5//5
f 11//9 10//9 8//9
f 14//10 13//10 10//10
f 14//11 12//11 13//11
f 9//12 8//12 12//12
f 10//13 13//13 12//13
f 14//14 11//14 9//14
f 9//9 11//9 8//9
f 11//15 14//15 10//15
f 14//16 9//16 12//16
f 8//13 10//13 12//13
f 25//17 24//17 22//17
f 28//18 27//18 24//18
f 28//19 26//19 27//19
f 23//20 22//20 26//20
f 24//21 27//21 26//21
f 28//22 25//22 23//22
f 23//17 25//17 22//17
f 25//23 28//23 24//23
f 28//24 23//24 26//24
f 22//21 24//21 26//21
usemtl orange
f 18//25 17//25 15//25
f 21//26 20//26 17//26
f 21//27 19//27 20//27
f 16//28 15//28 19//28
f 17//29 20//29 19//29
f 21//30 18//30 16//30
f 16//25 18//25 15//25
f 18//31 21//31 17//31
f 21//32 16//32 19//32
f 15//29 17//29 19//29
f 32//33 31//33 29//33
f 35//34 34//34 31//34
f 35//35 33//35 34//35
f 30//36 29//36 33//36
f 31//37 34//37 33//37
f 35//38 32//38 30//38
f 30//33 32//33 29//33
f 32//39 35//39 31//39
f 35//40 30//40 33//40
f 29//37 31//37 33//37
