# Blender v2.78 (sub 0) OBJ File: 'Low_Poly_Nature_Pack_lite.blend'
# www.blender.org
mtllib model.mtl
o Grass_2_mat_Cube.054
v 0.037762 -0.049448 0.005403
v 0.074368 0.286710 0.000000
v 0.037762 -0.049448 -0.005403
v 0.056255 -0.050950 0.005403
v 0.056255 -0.050950 -0.005403
v -0.052892 -0.052616 0.006166
v -0.072355 0.332808 0.000000
v -0.052892 -0.052616 -0.006166
v -0.031781 -0.050969 0.006166
v -0.031781 -0.050969 -0.006166
v -0.016620 -0.049236 0.007272
v -0.004134 0.405716 0.000000
v -0.016620 -0.049236 -0.007272
v 0.008352 -0.049236 0.007272
v 0.008352 -0.049236 -0.007272
vn -0.0809 -0.9967 0.0000
vn -0.9941 0.1083 0.0000
vn 0.0013 0.0159 -0.9999
vn 0.9986 -0.0536 0.0000
vn 0.0013 0.0159 0.9999
vn 0.0778 -0.9970 0.0000
vn -0.9987 -0.0504 0.0000
vn -0.0012 0.0159 -0.9999
vn 0.9945 0.1051 0.0000
vn -0.0012 0.0159 0.9999
vn -0.0000 -1.0000 0.0000
vn -0.9996 0.0274 0.0000
vn 0.0000 0.0160 -0.9999
vn 0.9996 0.0274 0.0000
vn 0.0000 0.0160 0.9999
usemtl leafs_1
s off
f 3//1 4//1 1//1
f 2//2 3//2 1//2
f 2//3 5//3 3//3
f 2//4 4//4 5//4
f 2//5 1//5 4//5
f 8//6 9//6 6//6
f 7//7 8//7 6//7
f 7//8 10//8 8//8
f 7//9 9//9 10//9
f 7//10 6//10 9//10
f 13//11 14//11 11//11
f 12//12 13//12 11//12
f 12//13 15//13 13//13
f 12//14 14//14 15//14
f 12//15 11//15 14//15
f 3//1 5//1 4//1
f 8//6 10//6 9//6
f 13//11 15//11 14//11
