# Blender v2.78 (sub 0) OBJ File: 'Low_Poly_Nature_Pack_lite.blend'
# www.blender.org
mtllib model.mtl
o bush_5_summer_mat_Icosphere.006
v -0.107878 -0.053348 -0.049105
v -0.085861 0.239633 -0.049105
v -0.072840 -0.053348 -0.133695
v -0.057271 0.239633 -0.118127
v 0.011750 -0.053348 -0.168734
v 0.011750 0.239633 -0.146716
v 0.096340 -0.053347 -0.133695
v 0.080772 0.239633 -0.118127
v 0.131378 -0.053347 -0.049105
v 0.109361 0.239633 -0.049105
v 0.096340 -0.053347 0.035484
v 0.080772 0.239633 0.019916
v 0.011750 -0.053348 0.070523
v 0.011750 0.239633 0.048505
v -0.072840 -0.053348 0.035484
v -0.057271 0.239633 0.019916
v 0.521304 0.910649 0.277836
v 0.166359 0.906974 0.251707
v 0.062963 0.872006 -0.074195
v 0.464370 0.474782 -0.095043
v 0.246749 0.439536 -0.075234
v 0.504202 0.442259 0.123898
v 0.432477 0.564815 -0.193845
v 0.279110 0.732085 -0.248901
v 0.637068 0.664184 -0.100160
v 0.589135 0.660865 0.231904
v 0.183742 0.552666 0.211201
v 0.334270 0.634854 0.316700
v 0.086073 0.666543 0.020759
v 0.668709 0.798133 0.073087
v 0.372729 0.879172 -0.270975
v 0.534690 0.859325 -0.141063
v 0.311270 1.030436 -0.026945
v 0.483565 1.042231 0.188678
v 0.269918 1.010074 0.172600
v -0.247004 0.796241 -0.013271
v -0.389910 0.868806 0.077331
v -0.187032 1.263506 0.200304
v 0.212265 0.452754 0.395897
v 0.119447 0.457524 0.117956
v 0.312862 0.638115 0.208249
v -0.071104 0.506585 0.100032
v -0.026195 0.492121 0.544822
v -0.194816 0.475363 0.387113
v -0.269092 0.634562 0.603293
v -0.375939 0.631171 0.204777
v 0.129601 0.863266 -0.127249
v 0.399350 0.679396 0.429998
v 0.305583 0.858452 0.077367
v 0.022746 0.779361 0.722289
v 0.232129 0.991011 0.621900
v -0.389069 0.858452 0.582060
v -0.162159 0.858452 0.736877
v -0.474140 0.858452 0.318418
v 0.326035 1.076501 0.170180
v 0.316021 1.080843 0.429613
v -0.100578 1.043741 0.702514
v -0.399633 1.101131 0.439757
v -0.075733 1.113776 -0.047327
v 0.183815 1.215748 0.250183
v -0.026195 1.243473 0.080463
v 0.111465 1.237409 0.507894
v 0.319926 0.312117 -0.354467
v 0.441136 0.320126 0.077883
v -0.528156 0.523118 -0.053473
v -0.312070 0.860811 -0.383972
v 0.216842 0.812209 -0.385159
v -0.195575 1.045028 -0.157102
v 0.162676 0.121546 0.004635
v -0.026195 0.300994 -0.502453
v -0.180901 0.114120 -0.299935
v 0.163638 0.319787 0.307887
v -0.270215 0.150665 0.005326
v -0.267651 0.252307 0.271583
v 0.124063 0.565821 -0.536414
v -0.178983 0.565821 -0.544200
v 0.526622 0.565821 -0.073959
v 0.440215 0.678431 -0.220671
v 0.351159 0.608677 0.259183
v -0.423160 0.565821 0.214452
v -0.095459 0.588590 0.394457
v -0.306437 0.423375 -0.444231
v -0.127063 0.775276 0.345401
v -0.429592 0.827969 0.057115
v 0.227536 0.997501 -0.156400
v -0.026195 0.982419 -0.331430
v 0.196092 1.042954 0.147473
v -0.176197 0.978750 0.132503
v -0.093933 0.494816 -0.271975
v -0.511277 0.794746 -0.147973
v -0.555759 0.765461 -0.486944
v -0.236654 0.498788 -0.557220
v -0.333539 0.377840 -0.453686
v -0.278603 0.497183 -0.117462
v -0.341546 0.388372 -0.324382
v -0.483552 0.490623 -0.156294
v -0.510121 0.495020 -0.528609
v -0.380971 0.721927 -0.600384
v -0.128512 0.502377 -0.425489
v -0.115014 0.692553 -0.533497
v -0.099948 0.643346 -0.183034
v -0.584707 0.553253 -0.235086
v -0.378999 0.630916 -0.119608
v -0.158078 0.846990 -0.370641
v -0.321794 0.877032 -0.476822
v -0.304747 0.798767 -0.129407
v -0.427318 0.888384 -0.233692
vn 0.9060 -0.3985 0.1426
vn -0.7828 -0.3314 -0.5266
vn 0.9083 -0.4049 0.1052
vn -0.7096 -0.3000 -0.6376
vn 0.8202 0.4630 0.3361
vn -0.0627 0.6464 0.7604
vn -0.5473 0.8327 0.0843
vn -0.3698 0.7451 -0.5550
vn -0.7344 0.6736 -0.0834
vn -0.1535 0.9857 0.0688
vn -0.1424 0.5269 0.8379
vn 0.4281 0.8168 -0.3867
vn 0.7083 0.6581 -0.2552
vn 0.4201 0.8149 -0.3993
vn -0.5275 0.2123 -0.8226
vn -0.9537 0.0310 0.2992
vn -0.9072 -0.0914 0.4106
vn -0.0740 0.1882 0.9793
vn 0.8371 0.1296 0.5314
vn 0.4073 0.0223 -0.9130
vn 0.6184 -0.0744 -0.7823
vn -0.5241 -0.1221 0.8429
vn 0.3224 -0.0858 0.9427
vn 0.8358 0.3498 -0.4231
vn 0.1118 -0.2167 -0.9698
vn -0.2187 -0.4801 -0.8495
vn -0.8033 -0.5928 0.0575
vn -0.2321 -0.9210 0.3127
vn -0.0701 -0.7360 0.6734
vn 0.3173 -0.5163 0.7954
vn 0.0560 -0.7289 -0.6823
vn 0.1424 -0.9750 -0.1707
vn 0.7164 -0.6593 -0.2283
vn 0.5513 -0.5203 -0.6521
vn -0.0555 -0.9985 0.0014
vn -0.0523 -0.5156 -0.8553
vn -0.0583 -0.9843 0.1669
vn -0.6267 -0.3966 -0.6708
vn -0.8577 -0.4334 0.2768
vn 0.6327 0.5582 0.5368
vn -0.7846 0.5122 -0.3494
vn -0.3536 0.7216 -0.5952
vn -0.6291 0.5070 -0.5893
vn -0.2007 0.8843 0.4215
vn -0.3658 0.8279 0.4252
vn 0.2781 0.5122 0.8126
vn 0.1336 0.9900 -0.0457
vn 0.6307 0.7678 0.1125
vn 0.7039 0.7101 0.0153
vn 0.1271 0.9919 0.0048
vn 0.4732 0.7494 -0.4631
vn 0.4389 0.5400 -0.7182
vn -0.4693 0.1600 -0.8684
vn -0.8669 0.4088 -0.2853
vn -0.9427 0.1373 0.3042
vn -0.5601 0.4008 0.7250
vn 0.1359 0.1368 0.9812
vn 0.2597 0.1919 0.9464
vn 0.8678 0.1806 0.4630
vn 0.9785 0.2032 0.0344
vn 0.7450 0.2009 -0.6361
vn 0.4302 0.5747 -0.6962
vn -0.9155 -0.2307 -0.3297
vn -0.8458 -0.4809 0.2309
vn -0.5335 0.3223 0.7820
vn -0.5500 -0.2183 0.8061
vn -0.1285 -0.4622 0.8774
vn 0.5712 -0.1858 0.7995
vn 0.9682 0.0154 -0.2496
vn 0.9288 -0.1661 -0.3313
vn 0.7081 -0.3432 -0.6171
vn -0.2988 0.0590 -0.9525
vn -0.1835 -0.4527 -0.8726
vn -0.4638 -0.5525 -0.6925
vn -0.4448 -0.8494 -0.2840
vn -0.7491 -0.6295 0.2062
vn -0.3595 -0.8061 0.4701
vn -0.0944 -0.5116 0.8540
vn 0.3837 -0.5318 0.7550
vn 0.4519 -0.4856 0.7483
vn -0.2264 -0.9530 -0.2012
vn 0.7712 -0.6084 -0.1875
vn 0.7207 -0.6460 -0.2517
vn 0.6661 -0.3979 -0.6309
vn 0.2573 -0.8002 -0.5418
vn -0.0621 -0.9322 0.3565
vn -0.0666 -0.9928 0.0994
vn 0.3804 -0.3268 -0.8652
vn 0.8642 -0.4453 -0.2340
vn -0.8513 -0.3513 0.3896
vn 0.7009 0.0301 -0.7126
vn 0.8837 -0.0184 0.4678
vn 0.6830 0.5517 -0.4788
vn -0.7424 0.6532 -0.1492
vn 0.0290 0.3383 -0.9406
vn -0.2471 0.8104 -0.5312
vn -0.5465 0.8077 0.2214
vn -0.5222 0.5531 0.6491
vn -0.1744 0.9573 0.2307
vn -0.1485 0.6976 0.7010
vn 0.2779 0.3312 0.9017
vn 0.1108 0.9845 -0.1358
vn 0.8324 0.5542 0.0032
vn 0.1087 0.9645 -0.2407
vn 0.3684 0.7139 -0.5955
vn 0.0432 0.4918 -0.8696
vn -0.6762 0.0920 -0.7310
vn -0.9043 0.3698 -0.2134
vn -0.9255 0.1780 0.3343
vn -0.5934 0.4035 0.6965
vn 0.2659 0.2868 0.9203
vn 0.8322 0.3968 0.3873
vn 0.8140 0.5798 -0.0344
vn 0.6558 0.1999 -0.7280
vn -0.8618 0.0583 -0.5039
vn -0.4841 0.1448 0.8630
vn -0.4760 -0.0764 0.8761
vn -0.0277 -0.3305 0.9434
vn 0.2909 -0.0276 0.9564
vn 0.6140 -0.2737 0.7403
vn 0.8335 -0.0737 -0.5475
vn 0.0220 0.5170 -0.8557
vn 0.0254 -0.1413 -0.9896
vn -0.3275 -0.3286 -0.8858
vn -0.8082 -0.4844 -0.3350
vn -0.7986 -0.5790 -0.1643
vn -0.8188 -0.5337 0.2116
vn 0.0846 -0.8341 0.5450
vn 0.4132 -0.7628 0.4974
vn -0.3838 -0.5138 -0.7673
vn 0.6002 -0.7849 -0.1537
vn 0.3149 -0.8885 -0.3336
vn 0.3754 -0.9216 0.0983
vn 0.2404 -0.0322 -0.9701
vn 0.9640 0.1642 -0.2091
vn -0.5371 0.0392 -0.8426
vn -0.0768 0.7098 0.7002
vn -0.4296 0.9028 -0.0216
vn -0.2854 0.6614 -0.6936
vn -0.8340 0.3994 -0.3806
vn 0.4835 0.8588 0.1697
vn 0.0377 0.9753 0.2179
vn 0.4756 0.6977 -0.5358
vn 0.2610 0.5386 -0.8011
vn -0.9614 0.2548 0.1041
vn -0.0910 0.0981 0.9910
vn 0.6043 0.6263 0.4926
vn 0.9771 0.1126 -0.1806
vn -0.9669 -0.1293 -0.2200
vn -0.4251 -0.1900 0.8850
vn -0.5324 0.1805 0.8270
vn -0.1811 -0.1203 0.9761
vn 0.2232 -0.0419 0.9739
vn 0.2109 0.1738 0.9619
vn 0.5854 -0.3989 0.7058
vn 0.9763 0.0503 0.2105
vn 0.7198 -0.3808 -0.5805
vn -0.0974 -0.2494 -0.9635
vn -0.5622 -0.8264 0.0325
vn -0.5550 -0.8315 0.0239
vn -0.5499 -0.8342 0.0429
vn -0.0628 -0.8753 0.4794
vn 0.2993 -0.8790 0.3712
vn -0.0738 -0.6138 -0.7860
vn 0.5284 -0.8337 -0.1601
vn 0.5151 -0.7569 -0.4022
vn -0.9217 0.0693 -0.3818
vn -0.3818 0.0693 -0.9217
vn 0.3818 0.0693 -0.9217
vn 0.9217 0.0693 -0.3818
vn 0.9217 0.0693 0.3818
vn 0.3818 0.0693 0.9217
vn -0.9217 0.0693 0.3818
vn -0.3818 0.0693 0.9217
usemtl leafs_1
s off
f 22//1 25//1 30//1
f 21//2 29//2 19//2
f 22//3 30//3 26//3
f 21//4 19//4 24//4
f 17//5 30//5 34//5
f 18//6 17//6 35//6
f 19//7 18//7 33//7
f 31//8 19//8 33//8
f 33//9 18//9 35//9
f 35//10 34//10 33//10
f 35//11 17//11 34//11
f 34//12 32//12 33//12
f 34//13 30//13 32//13
f 32//14 31//14 33//14
f 24//15 19//15 31//15
f 29//16 18//16 19//16
f 29//17 27//17 18//17
f 28//18 17//18 18//18
f 26//19 30//19 17//19
f 25//20 23//20 32//20
f 23//21 31//21 32//21
f 27//22 28//22 18//22
f 28//23 26//23 17//23
f 30//24 25//24 32//24
f 23//25 24//25 31//25
f 23//26 21//26 24//26
f 21//27 27//27 29//27
f 21//28 22//28 27//28
f 22//29 28//29 27//29
f 22//30 26//30 28//30
f 23//31 20//31 21//31
f 20//32 22//32 21//32
f 22//33 20//33 25//33
f 20//34 23//34 25//34
f 44//35 40//35 39//35
f 47//36 40//36 42//36
f 44//37 39//37 43//37
f 36//38 46//38 37//38
f 45//39 52//39 54//39
f 51//40 56//40 62//40
f 37//41 58//41 38//41
f 61//42 59//42 38//42
f 59//43 37//43 38//43
f 58//44 57//44 38//44
f 38//45 57//45 62//45
f 57//46 51//46 62//46
f 62//47 60//47 38//47
f 62//48 56//48 60//48
f 56//49 55//49 60//49
f 60//50 61//50 38//50
f 60//51 55//51 61//51
f 55//52 59//52 61//52
f 36//53 37//53 59//53
f 54//54 58//54 37//54
f 54//55 52//55 58//55
f 52//56 57//56 58//56
f 53//57 50//57 57//57
f 50//58 51//58 57//58
f 51//59 48//59 56//59
f 48//60 55//60 56//60
f 49//61 47//61 55//61
f 47//62 59//62 55//62
f 37//63 46//63 54//63
f 46//64 45//64 54//64
f 52//65 53//65 57//65
f 52//66 45//66 53//66
f 45//67 50//67 53//67
f 50//68 48//68 51//68
f 48//69 49//69 55//69
f 48//70 41//70 49//70
f 41//71 47//71 49//71
f 47//72 36//72 59//72
f 47//73 42//73 36//73
f 42//74 46//74 36//74
f 42//75 44//75 46//75
f 44//76 45//76 46//76
f 44//77 43//77 45//77
f 43//78 50//78 45//78
f 43//79 39//79 50//79
f 39//80 48//80 50//80
f 40//81 44//81 42//81
f 39//82 41//82 48//82
f 39//83 40//83 41//83
f 40//84 47//84 41//84
f 63//85 71//85 70//85
f 69//86 74//86 73//86
f 69//87 73//87 71//87
f 63//88 70//88 75//88
f 64//89 63//89 77//89
f 65//90 74//90 80//90
f 63//91 75//91 78//91
f 64//92 77//92 79//92
f 78//93 67//93 85//93
f 66//94 84//94 68//94
f 67//95 66//95 86//95
f 86//96 66//96 68//96
f 68//97 84//97 88//97
f 84//98 83//98 88//98
f 88//99 87//99 68//99
f 88//100 83//100 87//100
f 83//101 79//101 87//101
f 87//102 85//102 68//102
f 87//103 78//103 85//103
f 85//104 86//104 68//104
f 85//105 67//105 86//105
f 76//106 66//106 67//106
f 76//107 82//107 66//107
f 65//108 84//108 66//108
f 65//109 80//109 84//109
f 80//110 83//110 84//110
f 81//111 79//111 83//111
f 79//112 77//112 87//112
f 77//113 78//113 87//113
f 78//114 75//114 67//114
f 82//115 65//115 66//115
f 80//116 81//116 83//116
f 80//117 74//117 81//117
f 74//118 72//118 81//118
f 81//119 72//119 79//119
f 72//120 64//120 79//120
f 77//121 63//121 78//121
f 75//122 76//122 67//122
f 75//123 70//123 76//123
f 70//124 82//124 76//124
f 71//125 65//125 82//125
f 71//126 73//126 65//126
f 73//127 74//127 65//127
f 74//128 69//128 72//128
f 69//129 64//129 72//129
f 70//130 71//130 82//130
f 69//131 63//131 64//131
f 69//132 71//132 63//132
f 95//133 93//133 89//133
f 92//134 98//134 100//134
f 89//135 99//135 101//135
f 97//136 91//136 98//136
f 90//137 106//137 107//137
f 91//138 90//138 105//138
f 98//139 91//139 105//139
f 105//140 90//140 107//140
f 107//141 106//141 105//141
f 106//142 104//142 105//142
f 104//143 100//143 105//143
f 100//144 98//144 105//144
f 102//145 90//145 91//145
f 103//146 106//146 90//146
f 101//147 104//147 106//147
f 101//148 99//148 104//148
f 91//149 97//149 102//149
f 102//150 103//150 90//150
f 102//151 96//151 103//151
f 96//152 94//152 103//152
f 103//153 101//153 106//153
f 103//154 94//154 101//154
f 94//155 89//155 101//155
f 99//156 100//156 104//156
f 99//157 92//157 100//157
f 92//158 97//158 98//158
f 93//159 95//159 97//159
f 95//160 102//160 97//160
f 95//161 96//161 102//161
f 95//162 94//162 96//162
f 95//163 89//163 94//163
f 92//164 93//164 97//164
f 89//165 93//165 99//165
f 93//166 92//166 99//166
usemtl Wood_dark
f 2//167 3//167 1//167
f 4//168 5//168 3//168
f 6//169 7//169 5//169
f 8//170 9//170 7//170
f 10//171 11//171 9//171
f 11//172 14//172 13//172
f 16//173 1//173 15//173
f 14//174 15//174 13//174
f 2//167 4//167 3//167
f 4//168 6//168 5//168
f 6//169 8//169 7//169
f 8//170 10//170 9//170
f 10//171 12//171 11//171
f 11//172 12//172 14//172
f 16//173 2//173 1//173
f 14//174 16//174 15//174
